<?xml version="1.0" standalone="no"?>
<!DOCTYPE svg PUBLIC "-//W3C//DTD SVG 20010904//EN"
 "http://www.w3.org/TR/2001/REC-SVG-20010904/DTD/svg10.dtd">
<svg version="1.0" xmlns="http://www.w3.org/2000/svg"
 width="260.000000pt" height="260.000000pt" viewBox="0 0 260.000000 260.000000"
 preserveAspectRatio="xMidYMid meet">
<metadata>
Created by potrace 1.11, written by Peter Selinger 2001-2013
</metadata>
<g transform="translate(0.000000,260.000000) scale(0.100000,-0.100000)"
fill="#000000" stroke="none">
<path d="M750 2006 c0 -9 16 -15 46 -19 56 -6 97 -34 105 -73 9 -42 9 -829 0
-893 -14 -94 -87 -123 -149 -58 -54 55 -55 81 -12 278 12 53 11 58 -11 88 -12
17 -26 31 -30 31 -11 0 -39 -97 -39 -134 0 -17 7 -56 15 -86 8 -30 15 -78 15
-106 0 -63 -23 -95 -88 -124 -57 -26 -79 -45 -102 -90 -18 -37 -17 -54 8 -82
14 -16 17 -15 54 15 61 50 77 57 104 45 13 -6 24 -17 24 -24 0 -7 6 -17 13
-21 13 -9 45 -149 57 -248 8 -72 24 -105 49 -105 17 0 18 3 3 64 -14 59 -14
68 2 110 18 46 36 61 36 29 0 -9 3 -14 6 -11 3 4 -4 37 -15 75 -10 37 -25 95
-31 128 -6 33 -14 68 -16 78 -5 16 7 17 145 17 83 0 151 -2 151 -4 0 -52 49
-203 60 -185 5 7 13 8 21 3 8 -5 22 -7 33 -5 11 1 16 -2 12 -8 -4 -6 0 -11 8
-11 9 0 16 -5 16 -11 0 -5 -4 -7 -10 -4 -5 3 -10 1 -10 -5 0 -6 10 -8 25 -4
15 4 25 2 25 -5 0 -6 4 -11 10 -11 5 0 8 6 6 13 -1 6 -1 9 1 4 3 -4 9 -4 15
-1 12 8 1 -34 -14 -54 -13 -16 -35 -16 -41 1 -4 9 -8 9 -15 -2 -6 -8 -18 -11
-31 -6 -13 4 -21 2 -21 -6 0 -6 21 -80 46 -163 53 -175 80 -280 88 -351 l7
-50 -15 40 c-9 22 -25 48 -37 58 -12 10 -16 17 -8 17 9 0 8 4 -3 13 -17 12
-75 145 -70 159 1 5 -2 8 -8 8 -12 0 -13 4 5 -50 25 -81 62 -160 70 -152 4 4
4 -3 1 -15 -6 -18 -3 -23 11 -23 14 0 15 -2 4 -9 -10 -7 -11 -16 -4 -37 11
-32 41 -44 54 -22 6 10 9 10 9 1 0 -9 23 -13 79 -13 l80 0 -4 32 c-13 102 -12
144 1 163 8 10 14 31 14 46 0 26 -3 28 -40 19 -3 0 4 -7 14 -15 11 -8 18 -15
15 -16 -2 0 -12 -2 -21 -4 -15 -3 -16 3 -12 38 4 23 14 51 23 62 34 40 46 59
34 51 -7 -4 -13 -3 -13 3 0 5 4 12 10 16 5 3 7 12 4 20 -4 8 -11 12 -17 8 -12
-7 32 58 45 68 7 4 22 202 20 254 -1 11 4 23 11 28 9 7 9 10 0 14 -7 2 -13 11
-13 19 0 9 5 12 10 9 15 -9 12 27 -4 48 -7 9 -18 17 -25 17 -6 0 -11 7 -11 15
0 17 16 20 25 5 4 -6 68 -10 161 -10 129 0 154 2 154 15 0 8 -12 17 -27 21
-94 19 -187 82 -223 149 -12 23 -11 27 11 51 13 14 39 35 59 46 110 65 144
101 185 198 11 25 26 51 33 59 19 20 125 160 155 206 15 22 34 50 43 63 9 12
15 25 12 27 -7 7 -192 -127 -243 -175 -22 -20 -55 -46 -72 -56 -30 -17 -33
-22 -33 -69 0 -42 -6 -56 -33 -87 -18 -21 -39 -38 -47 -38 -13 0 -13 -2 0 -10
13 -8 13 -10 -2 -10 -11 0 -28 -22 -48 -62 -19 -41 -30 -55 -30 -40 0 33 52
142 102 214 24 35 45 73 46 86 4 30 -6 28 -19 -5 -8 -21 -12 -24 -19 -13 -5 8
-6 19 -3 25 4 5 -3 1 -15 -9 -22 -19 -30 -32 -13 -22 4 3 1 -10 -7 -29 -9 -18
-20 -33 -26 -32 -6 1 -10 -3 -9 -10 1 -6 -4 -17 -12 -23 -9 -8 -15 -8 -15 -2
0 6 6 13 13 15 7 3 5 6 -5 6 -9 1 -21 -7 -27 -16 -7 -14 -12 -15 -24 -5 -12
10 -16 10 -19 0 -3 -7 -11 9 -19 35 -7 27 -22 57 -31 67 -17 18 -15 21 30 67
60 62 83 110 90 190 2 35 7 63 11 63 20 -1 104 -90 115 -123 l13 -39 6 54 c3
29 3 67 0 83 -2 17 -5 41 -5 54 0 18 -2 20 -9 10 -6 -9 -9 -10 -9 -2 0 7 -12
11 -27 9 -45 -4 -81 14 -136 66 -121 116 -172 128 -554 128 -233 0 -283 -2
-283 -14z m511 -47 c41 -9 62 -22 104 -63 46 -44 55 -59 65 -110 12 -57 8
-103 -11 -153 -9 -24 -11 -25 -28 -9 -12 11 -33 16 -59 15 -42 -3 -65 -25 -37
-35 8 -4 15 -12 15 -20 0 -8 4 -14 8 -14 4 0 9 -11 10 -24 2 -34 -73 -65 -178
-73 l-80 -6 0 236 0 235 33 11 c75 23 92 24 158 10z m215 -653 c19 -37 34 -69
32 -71 -7 -7 -147 198 -141 208 9 15 69 -60 109 -137z m-288 97 c11 -10 91
-116 176 -236 131 -182 155 -221 146 -237 -5 -10 -10 -39 -10 -64 0 -46 -15
-62 -27 -28 -3 9 -12 24 -20 33 -12 14 -12 17 3 23 9 3 14 12 10 21 -3 10 1
15 14 15 12 0 18 6 17 19 0 11 -5 19 -11 18 -13 -3 -51 -40 -52 -52 -2 -34
-17 -96 -24 -100 -5 -3 -13 7 -18 22 -9 24 -10 21 -7 -24 1 -28 6 -56 9 -62 4
-6 2 -11 -4 -11 -6 0 -8 -11 -4 -27 6 -27 6 -27 -9 -8 -16 19 -16 19 -18 -10
-1 -16 -5 24 -9 90 -14 246 -77 448 -170 550 -26 28 -50 67 -50 79 0 13 39 5
58 -11z m-80 -35 c6 -24 19 -76 27 -117 8 -40 18 -77 21 -83 3 -5 12 -46 19
-91 16 -96 24 -137 31 -149 3 -4 2 -8 -3 -8 -17 0 -32 16 -53 58 -25 48 -37
53 -46 16 -5 -19 -9 -23 -18 -14 -7 7 -12 83 -14 220 -3 174 -2 210 10 210 7
0 19 -19 26 -42z m100 -547 c-2 -57 -5 -68 -16 -59 -17 15 -47 72 -33 64 14
-9 14 7 1 20 -17 17 0 44 27 44 24 0 24 -2 21 -69z m-1 -103 c-3 -8 -6 -5 -6
6 -1 11 2 17 5 13 3 -3 4 -12 1 -19z m283 -327 c0 -5 -7 -12 -16 -15 -14 -5
-15 -4 -4 9 14 17 20 19 20 6z m-34 -77 c-7 -19 -26 -18 -26 2 0 8 5 12 10 9
6 -3 11 4 11 17 1 18 2 19 6 5 3 -10 2 -25 -1 -33z m-16 -48 c0 -3 -4 -8 -10
-11 -5 -3 -10 -1 -10 4 0 6 5 11 10 11 6 0 10 -2 10 -4z"/>
<path d="M525 1558 c-9 -24 -22 -50 -29 -58 -7 -8 -18 -33 -24 -55 -10 -37
-10 -38 4 -20 37 47 88 175 71 175 -3 0 -12 -19 -22 -42z"/>
<path d="M1633 1414 c-17 -18 -2 -25 20 -9 13 9 14 14 5 18 -7 2 -19 -1 -25
-9z"/>
<path d="M2032 1367 c-8 -9 -20 -13 -28 -10 -22 8 -56 -26 -48 -50 3 -11 2
-17 -2 -14 -5 3 -15 -1 -22 -9 -11 -12 -10 -15 2 -20 9 -3 16 -11 16 -16 0 -6
-6 -8 -14 -5 -9 4 -12 0 -9 -13 6 -24 -28 -46 -93 -60 -39 -8 -54 -17 -68 -40
-22 -38 -10 -38 33 0 35 31 64 31 36 0 -14 -16 -15 -18 -1 -16 8 1 24 10 35
20 10 9 26 16 34 14 8 -2 26 8 39 22 13 14 45 44 71 68 l47 42 -8 52 c-6 44
-9 49 -20 35z"/>
<path d="M582 1341 c-22 -16 -43 -35 -47 -41 -11 -17 -126 -90 -142 -90 -7 0
-12 6 -10 12 1 7 -8 14 -21 16 -12 2 -20 8 -17 13 12 18 -11 9 -61 -25 l-51
-34 -22 45 c-24 50 -32 48 -52 -12 -14 -44 -16 -91 -4 -117 11 -27 -46 -107
-105 -147 -47 -32 -50 -37 -50 -78 0 -31 4 -43 14 -43 8 0 22 -10 30 -22 14
-20 15 -16 18 53 3 66 6 75 25 84 13 5 23 13 23 17 0 5 7 8 15 8 9 0 12 -6 9
-15 -4 -8 -1 -15 5 -15 7 0 14 6 17 14 3 8 12 12 19 9 11 -4 10 -10 -5 -31
-19 -26 -44 -92 -34 -92 2 0 13 9 25 21 15 15 24 18 34 9 18 -15 28 -3 83 110
42 85 54 101 116 150 39 30 97 82 130 115 34 33 68 60 76 60 8 0 14 5 13 10 0
6 3 18 8 28 13 23 9 22 -39 -12z"/>
<path d="M560 1278 c-30 -45 -31 -48 -20 -48 5 0 10 7 10 15 0 11 8 13 30 9
28 -6 30 -4 30 21 0 22 -3 25 -14 16 -9 -8 -15 -8 -18 -1 -1 5 -10 0 -18 -12z"/>
<path d="M585 1088 c-11 -75 -10 -101 1 -105 21 -7 35 129 15 142 -6 3 -12
-14 -16 -37z"/>
<path d="M1745 714 c-4 -16 -11 -44 -17 -62 -5 -18 -8 -36 -5 -39 3 -3 0 -22
-8 -42 -8 -20 -16 -52 -19 -71 -3 -19 -9 -52 -15 -74 -5 -21 -8 -47 -6 -57 2
-10 -3 -26 -12 -34 -8 -9 -12 -22 -9 -30 3 -8 2 -15 -3 -15 -4 0 -8 -7 -8 -15
0 -8 4 -15 8 -15 5 0 4 -12 -1 -26 -7 -16 -7 -23 0 -19 6 3 10 1 10 -5 0 -6 5
-8 12 -4 7 4 8 3 4 -4 -4 -6 -14 -8 -23 -5 -12 5 -14 3 -8 -8 5 -7 9 -33 10
-57 0 -39 -1 -41 -13 -25 -14 17 -14 17 -9 -4 3 -13 1 -26 -4 -29 -12 -7 -12
-61 0 -69 5 -3 12 3 14 12 4 17 5 17 6 1 0 -10 9 -18 19 -18 16 0 22 17 37
103 10 56 20 116 22 132 2 17 9 53 15 80 6 28 12 114 13 193 3 126 5 145 22
157 10 9 13 14 6 15 -7 0 -13 8 -13 18 0 9 -4 24 -9 31 -8 12 -11 8 -16 -15z"/>
<path d="M1575 689 c-17 -98 -8 -175 16 -138 8 12 2 158 -6 168 -2 1 -6 -12
-10 -30z"/>
<path d="M1910 670 c0 -5 5 -10 11 -10 6 0 1 -9 -12 -19 -20 -16 -28 -17 -49
-7 -31 15 -61 10 -53 -10 3 -8 1 -14 -5 -14 -5 0 -12 -11 -14 -24 -4 -17 -1
-23 9 -19 7 3 13 0 13 -6 0 -7 -7 -14 -15 -17 -8 -4 -15 -10 -15 -16 0 -5 4
-7 9 -4 5 3 11 -7 13 -24 3 -17 0 -27 -5 -23 -6 4 -8 -3 -5 -15 4 -12 2 -22
-3 -22 -4 0 -6 -7 -3 -15 4 -8 11 -12 18 -9 6 3 4 -1 -6 -8 -12 -10 -16 -31
-17 -81 0 -37 -5 -76 -11 -87 -8 -15 -8 -20 2 -20 8 0 9 -3 3 -8 -5 -4 -12
-18 -13 -32 -2 -14 -9 -31 -15 -39 -10 -12 -9 -14 6 -8 9 3 17 2 17 -3 0 -6
-5 -10 -11 -10 -5 0 -8 -3 -5 -8 2 -4 1 -26 -3 -49 -10 -53 0 -63 61 -63 43 0
48 2 49 23 l0 22 9 -22 c5 -13 17 -23 26 -23 13 0 15 7 10 37 -16 104 -18 123
-10 123 17 0 32 -50 28 -92 -2 -24 -1 -35 2 -25 5 14 9 16 20 6 8 -6 14 -20
14 -30 0 -17 9 -19 86 -19 85 0 86 0 80 23 -4 12 -20 72 -35 132 -16 61 -43
141 -60 178 -18 37 -40 108 -51 157 -22 109 -48 190 -61 190 -5 0 -9 -4 -9
-10z m-13 -482 c-3 -8 -6 -5 -6 6 -1 11 2 17 5 13 3 -3 4 -12 1 -19z"/>
<path d="M905 564 c11 -9 34 -22 50 -30 17 -8 40 -21 53 -30 12 -9 22 -12 22
-7 0 11 -60 67 -60 56 0 -5 -4 -3 -8 3 -4 6 -23 15 -42 18 -34 7 -34 6 -15
-10z"/>
<path d="M45 415 c-11 -25 -22 -45 -25 -45 -4 0 -7 -16 -7 -37 l0 -36 22 27
c19 24 42 122 31 133 -1 2 -11 -17 -21 -42z"/>
<path d="M599 420 c-4 -64 3 -176 11 -178 6 -2 15 -13 21 -24 8 -15 8 -19 -1
-13 -7 4 -6 -6 4 -28 8 -20 12 -38 9 -40 -2 -3 7 -27 21 -53 14 -27 26 -54 26
-61 0 -12 38 -29 46 -20 3 3 -2 31 -11 63 -9 33 -21 79 -25 104 -5 25 -11 56
-14 70 -7 30 -66 171 -78 185 -5 5 -8 3 -9 -5z"/>
<path d="M1633 165 c0 -8 4 -12 9 -9 4 3 8 9 8 15 0 5 -4 9 -8 9 -5 0 -9 -7
-9 -15z"/>
<path d="M166 125 c-18 -134 -19 -125 12 -125 l29 0 -14 73 c-7 39 -14 79 -16
87 -2 8 -7 -7 -11 -35z"/>
<path d="M2585 27 c-4 -10 -5 -21 -1 -24 10 -10 18 4 13 24 -4 17 -4 17 -12 0z"/>
</g>
</svg>
